<svg version="1.1" xmlns="http://www.w3.org/2000/svg" xmlns:xlink="http://www.w3.org/1999/xlink" width="85.20782" height="82.95308" viewBox="0,0,85.20782,82.95308"><defs><linearGradient x1="239.93955" y1="146.80999" x2="239.93955" y2="172.92053" gradientUnits="userSpaceOnUse" id="color-1"><stop offset="0" stop-color="#eaff00"/><stop offset="1" stop-color="#eaff00" stop-opacity="0"/></linearGradient><linearGradient x1="219.40525" y1="171.29014" x2="241.16132" y2="187.35835" gradientUnits="userSpaceOnUse" id="color-2"><stop offset="0" stop-color="#ffffff"/><stop offset="1" stop-color="#ffffff" stop-opacity="0"/></linearGradient></defs><g transform="translate(-197.39609,-141.48733)"><g data-paper-data="{&quot;isPaintingLayer&quot;:true}" fill-rule="nonzero" stroke-linejoin="miter" stroke-miterlimit="10" stroke-dasharray="" stroke-dashoffset="0" style="mix-blend-mode: normal"><text transform="translate(212.49572,221.59316) scale(0.23727,0.23727)" font-size="40" xml:space="preserve" fill="#000000" fill-rule="nonzero" stroke="none" stroke-width="1" stroke-linecap="butt" stroke-linejoin="miter" stroke-miterlimit="10" stroke-dasharray="" stroke-dashoffset="0" font-family="Sans Serif" font-weight="normal" text-anchor="start" style="mix-blend-mode: normal"><tspan x="0" dy="0">BenBrowser</tspan></text><path d="M257.00001,197.4c0,-0.82168 0.3964,-1.55077 1.0084,-2.00647c0.10498,-1.28412 1.18041,-2.29353 2.4916,-2.29353c1.38071,0 2.5,1.11929 2.5,2.5c0,0.56259 -0.18583,1.08178 -0.49946,1.49953c0.06475,0.22226 0.09946,0.45731 0.09946,0.70047c0,1.38071 -1.11929,2.5 -2.5,2.5c-0.64229,0 -1.22801,-0.24221 -1.6708,-0.64028c-0.84496,-0.40111 -1.4292,-1.26218 -1.4292,-2.25972z" fill="#000000" stroke="none" stroke-width="0.5" stroke-linecap="butt"/><path d="M253.07484,193.25188v-2.66488h0.411v2.66488z" fill="#00ff08" stroke="none" stroke-width="0" stroke-linecap="butt"/><path d="M253.42448,193.22949v-2.66488h0.411v2.66488z" fill="#00ff08" stroke="none" stroke-width="0" stroke-linecap="butt"/><path d="M269.6654,196.44662l-27.05236,-4.91861l-10.14464,16.2929v-6.76309v-12.60395l-22.13375,-6.14826l15.37066,-7.37792l4.6112,-22.74858l17.21514,15.98548l15.98549,-4.30378l-12.91135,18.44479l12.91135,8.60757z" fill="#ff0000" stroke="#000000" stroke-width="0.5" stroke-linecap="round"/><path d="M257.00005,197.4c0,-0.82168 0.39639,-1.55077 1.0084,-2.00647c0.10498,-1.28412 1.18041,-2.29353 2.4916,-2.29353c1.38071,0 2.5,1.11929 2.5,2.5c0,0.56259 -0.18583,1.08178 -0.49946,1.49953c0.06475,0.22226 0.09946,0.45731 0.09946,0.70047c0,1.38071 -1.11929,2.5 -2.5,2.5c-0.64229,0 -1.22801,-0.24221 -1.6708,-0.64028c-0.84496,-0.40111 -1.4292,-1.26218 -1.4292,-2.25972z" fill="#000000" stroke="none" stroke-width="0.5" stroke-linecap="butt"/><path d="M197.39609,206.56339c0,-14.19737 0,-46.8559 0,-54.17749c0,-2.85323 3.49156,-5.57587 7.15136,-5.57587c9.63689,0 53.4967,0 70.9051,0c4.43349,0 7.15136,2.86126 7.15136,5.82554c0,7.41817 0,39.80365 0,53.92783c0,4.07239 -1.83487,6.62667 -7.15136,6.62667c-18.46684,0 -62.36462,0 -72.15343,0c-4.09998,0 -5.90303,-2.55361 -5.90303,-6.62667z" fill="#48ff00" stroke="none" stroke-width="0" stroke-linecap="butt"/><path d="M253.07484,193.25188v-2.66488h0.411v2.66488z" fill="#00ff08" stroke="none" stroke-width="0" stroke-linecap="butt"/><path d="M253.42448,193.22949v-2.66488h0.411v2.66488z" fill="#00ff08" stroke="none" stroke-width="0" stroke-linecap="butt"/><path d="M212.79783,171.23341l-13.83276,-22.18943c0,0 2.16268,-2.18752 3.89994,-2.23399c1.44518,-0.03866 54.67321,-0.013 72.8354,-0.00328c3.67069,0.00196 5.46835,2.31013 5.46835,2.31013l-14.99895,21.87555z" fill="url(#color-1)" stroke="none" stroke-width="0" stroke-linecap="butt"/><text transform="translate(202.55913,161.12177) scale(0.93602,0.53793)" font-size="40" xml:space="preserve" fill="#48ff00" fill-rule="nonzero" stroke="none" stroke-width="1" stroke-linecap="butt" stroke-linejoin="miter" stroke-miterlimit="10" stroke-dasharray="" stroke-dashoffset="0" font-family="Serif" font-weight="normal" text-anchor="start" style="mix-blend-mode: normal"><tspan x="0" dy="0">BEN</tspan></text><path d="M249.02568,193.67778c-7.65879,9.92365 -19.45663,5.9148 -25.4644,1.47769c-6.00777,-4.43711 -5.91575,-17.00454 -1.36413,-23.16735c4.55162,-6.16281 20.15866,-4.96582 26.16643,-0.5287c0,0 7.74461,13.04141 0.6621,22.21836z" fill="url(#color-2)" stroke="#000000" stroke-width="0" stroke-linecap="butt"/><path d="M252.44589,182.08087c0.64297,9.33711 -6.50207,17.43424 -15.95889,18.08545c-9.45682,0.65121 -17.64431,-6.39011 -18.28728,-15.72721c-0.64297,-9.33711 6.50207,-17.43424 15.95889,-18.08545c9.45682,-0.65121 17.64431,6.39011 18.28728,15.72721z" fill="none" stroke="#e9ff00" stroke-width="5.5" stroke-linecap="butt"/><path d="M225.50077,181.15939c0,0 0.13372,-2.69212 1.61374,-4.56779c1.40857,-1.78513 4.05293,-3.04332 4.05293,-3.04332" fill="none" stroke="#e9ff00" stroke-width="4" stroke-linecap="round"/><path d="M248.63993,194.35102l14.11504,10.68706" fill="none" stroke="#e9ff00" stroke-width="5.5" stroke-linecap="round"/></g></g></svg>