<svg version="1.1" xmlns="http://www.w3.org/2000/svg" xmlns:xlink="http://www.w3.org/1999/xlink" width="85.20782" height="77.93737" viewBox="0,0,85.20782,77.93737"><defs><linearGradient x1="240" y1="146.80998" x2="240" y2="213.19" gradientUnits="userSpaceOnUse" id="color-1"><stop offset="0" stop-color="#0056ff"></stop><stop offset="1" stop-color="#b400ff"></stop></linearGradient><linearGradient x1="240.91444" y1="153.4249" x2="240.91444" y2="173.88929" gradientUnits="userSpaceOnUse" id="color-2"><stop offset="0" stop-color="#00ff23"></stop><stop offset="1" stop-color="#00ff23" stop-opacity="0"></stop></linearGradient><linearGradient x1="230.60716" y1="163.89198" x2="251.06963" y2="163.89198" gradientUnits="userSpaceOnUse" id="color-3"><stop offset="0" stop-color="#edff00" stop-opacity="0"></stop><stop offset="1" stop-color="#edff00"></stop></linearGradient><linearGradient x1="240.81885" y1="154.1659" x2="240.81885" y2="174.63029" gradientUnits="userSpaceOnUse" id="color-4"><stop offset="0" stop-color="#00ff23"></stop><stop offset="1" stop-color="#00ff23" stop-opacity="0"></stop></linearGradient><linearGradient x1="230.51157" y1="164.32877" x2="250.97404" y2="164.32877" gradientUnits="userSpaceOnUse" id="color-5"><stop offset="0" stop-color="#edff00" stop-opacity="0"></stop><stop offset="1" stop-color="#edff00"></stop></linearGradient><linearGradient x1="240.87283" y1="154.11953" x2="240.87283" y2="174.58392" gradientUnits="userSpaceOnUse" id="color-6"><stop offset="0" stop-color="#00ff23"></stop><stop offset="1" stop-color="#00ff23" stop-opacity="0"></stop></linearGradient><linearGradient x1="240.78187" y1="154.05286" x2="240.78187" y2="174.51725" gradientUnits="userSpaceOnUse" id="color-7"><stop offset="0" stop-color="#00ff23"></stop><stop offset="1" stop-color="#00ff23" stop-opacity="0"></stop></linearGradient><linearGradient x1="230.47458" y1="164.21573" x2="250.93705" y2="164.21573" gradientUnits="userSpaceOnUse" id="color-8"><stop offset="0" stop-color="#edff00" stop-opacity="0"></stop><stop offset="1" stop-color="#edff00"></stop></linearGradient><linearGradient x1="230.56555" y1="164.28239" x2="251.02802" y2="164.28239" gradientUnits="userSpaceOnUse" id="color-9"><stop offset="0" stop-color="#edff00" stop-opacity="0"></stop><stop offset="1" stop-color="#edff00"></stop></linearGradient></defs><g transform="translate(-197.39609,-146.80998)"><g data-paper-data="{&quot;isPaintingLayer&quot;:true}" fill-rule="nonzero" stroke-miterlimit="10" stroke-dasharray="" stroke-dashoffset="0" style="mix-blend-mode: normal"><text transform="translate(215.59171,221.83987) scale(0.24229,0.24229)" font-size="40" xml:space="preserve" fill="#000000" fill-rule="nonzero" stroke="none" stroke-width="1" stroke-linecap="butt" stroke-linejoin="miter" stroke-miterlimit="10" stroke-dasharray="" stroke-dashoffset="0" font-family="Sans Serif" font-weight="normal" text-anchor="start" style="mix-blend-mode: normal"><tspan x="0" dy="0">BenHealth</tspan></text><path d="M197.39609,206.56334c0,-14.19737 0,-46.8559 0,-54.17749c0,-2.85323 3.49156,-5.57587 7.15136,-5.57587c9.63689,0 53.4967,0 70.9051,0c4.43349,0 7.15136,2.86126 7.15136,5.82554c0,7.41817 0,39.80365 0,53.92783c0,4.07239 -1.83487,6.62667 -7.15136,6.62667c-18.46684,0 -62.36462,0 -72.15343,0c-4.09998,0 -5.90303,-2.55361 -5.90303,-6.62667z" fill="url(#color-1)" stroke="none" stroke-width="0" stroke-linecap="butt" stroke-linejoin="miter"></path><path d="M238.82989,200.35088l-24.05538,-26.02713c0,0 -4.72778,-7.81593 4.43869,-13.56979c8.70984,-4.90495 21.5263,8.1111 21.5263,8.1111c0,0 13.66985,-11.75327 21.16415,-8.04763c8.29311,4.38413 2.69047,12.84908 2.69047,12.84908z" fill="#ff0000" stroke="#ff0000" stroke-width="17.5" stroke-linecap="round" stroke-linejoin="round"></path><path d="M229.61197,203.37456c0,0 -0.44403,-5.2092 0.72642,-7.37005c1.17634,-2.17172 9.70435,-0.73207 9.70435,-0.73207c0,0 1.16215,4.73807 2.82573,6.63271c1.76086,2.00541 5.43698,3.56031 5.43698,3.56031" fill="none" stroke="#ffffff" stroke-width="5.5" stroke-linecap="round" stroke-linejoin="miter"></path><path d="M229.23353,183.1571c0,0 3.66737,4.07251 5.82706,1.81893c1.97603,-2.06195 6.53944,-12.68674 6.83428,-9.18072c2.94172,6.78988 -1.81156,18.5215 -1.81156,18.5215" fill="none" stroke="#ffffff" stroke-width="5.5" stroke-linecap="round" stroke-linejoin="miter"></path><path d="M242.11895,174.30121c0,0 6.47314,2.74996 8.3508,4.79831c2.07429,2.26286 -0.64442,5.66029 -0.64442,5.66029" fill="none" stroke="#ffffff" stroke-width="5.5" stroke-linecap="round" stroke-linejoin="miter"></path><path d="M240.88563,173.88929l-10.20244,-10.08904l10.26006,-10.37533l10.20242,10.08904z" fill="url(#color-2)" stroke="#000000" stroke-width="0" stroke-linecap="butt" stroke-linejoin="miter"></path><path d="M240.80958,174.12417l-10.20244,-10.08903l10.26006,-10.37533l10.20242,10.08903z" fill="url(#color-3)" stroke="#000000" stroke-width="0" stroke-linecap="butt" stroke-linejoin="miter"></path><path d="M240.79004,174.63029l-10.20244,-10.08904l10.26006,-10.37533l10.20242,10.08904z" fill="url(#color-4)" stroke="#000000" stroke-width="0" stroke-linecap="butt" stroke-linejoin="miter"></path><path d="M240.71399,174.56096l-10.20244,-10.08903l10.26006,-10.37533l10.20242,10.08903z" fill="url(#color-5)" stroke="#000000" stroke-width="0" stroke-linecap="butt" stroke-linejoin="miter"></path><path d="M240.84402,174.58392l-10.20244,-10.08904l10.26006,-10.37533l10.20242,10.08904z" fill="url(#color-6)" stroke="#000000" stroke-width="0" stroke-linecap="butt" stroke-linejoin="miter"></path><path d="M240.75306,174.51725l-10.20244,-10.08904l10.26006,-10.37533l10.20242,10.08904z" fill="url(#color-7)" stroke="#000000" stroke-width="0" stroke-linecap="butt" stroke-linejoin="miter"></path><path d="M240.677,174.44792l-10.20244,-10.08903l10.26006,-10.37533l10.20242,10.08903z" fill="url(#color-8)" stroke="#000000" stroke-width="0" stroke-linecap="butt" stroke-linejoin="miter"></path><path d="M240.76797,174.51458l-10.20244,-10.08903l10.26006,-10.37533l10.20242,10.08903z" fill="url(#color-9)" stroke="#000000" stroke-width="0" stroke-linecap="butt" stroke-linejoin="miter"></path><path d="M240.64234,154.82083c5.04849,0 9.1411,4.0926 9.1411,9.1411c0,5.04849 -4.0926,9.1411 -9.1411,9.1411c-5.04849,0 -9.1411,-4.0926 -9.1411,-9.1411c0,-5.04849 4.0926,-9.1411 9.1411,-9.1411z" fill="none" stroke="#ffffff" stroke-width="5.5" stroke-linecap="butt" stroke-linejoin="miter"></path></g></g></svg>