<svg version="1.1" xmlns="http://www.w3.org/2000/svg" xmlns:xlink="http://www.w3.org/1999/xlink" width="517" height="395.08163" viewBox="0,0,517,395.08163"><defs><radialGradient cx="238.37508" cy="369.18368" r="257.5" gradientUnits="userSpaceOnUse" id="color-1"><stop offset="0" stop-color="#ffcc00"/><stop offset="1" stop-color="#1a1a1a"/></radialGradient><linearGradient x1="154.69125" y1="132.25032" x2="199.2354" y2="285.95935" gradientUnits="userSpaceOnUse" id="color-2"><stop offset="0" stop-color="#00ff27"/><stop offset="1" stop-color="#fff100"/></linearGradient><linearGradient x1="154.69125" y1="132.25032" x2="199.2354" y2="285.95935" gradientUnits="userSpaceOnUse" id="color-3"><stop offset="0" stop-color="#fff100"/><stop offset="1" stop-color="#05ff26"/></linearGradient></defs><g transform="translate(18.5,17.54081)"><g data-paper-data="{&quot;isPaintingLayer&quot;:true}" fill-rule="nonzero" stroke-linejoin="miter" stroke-miterlimit="10" stroke-dasharray="" stroke-dashoffset="0" style="mix-blend-mode: normal"><path d="M-17.5,376.54082v-393.08163h515v393.08163z" fill="url(#color-1)" stroke="#000000" stroke-width="2" stroke-linecap="butt"/><path d="M154.7318,295.06938c-4.71145,-11.16882 -18.85385,-47.67863 -13.35727,-71.60465c6.55527,-28.53441 34.52572,-18.52698 40.18843,-35.44895c1.81037,-5.40995 4.50164,-12.82631 -0.44884,-26.00714c-7.46834,-19.88474 -27.27521,-39.27036 -27.27521,-39.27036c0,0 31.99811,4.10651 48.03599,22.76176c12.09633,14.07045 14.3883,31.71145 14.50247,47.66031c0.26555,37.09459 -19.32847,23.24155 -28.06111,45.26393c-8.73264,22.02238 -2.3312,31.38084 -2.3312,31.38084c0,0 -19.76903,18.99814 -24.87211,23.90222c-2.26874,2.18028 -5.47369,3.51327 -6.38116,1.36205z" fill="url(#color-2)" stroke="url(#color-3)" stroke-width="0.5" stroke-linecap="round"/><text transform="translate(42.93593,178.63988) rotate(-0.32277) scale(2.83335,2.24109) skewX(-0.02876)" font-size="40" xml:space="preserve" fill="#00f9ff" fill-rule="nonzero" stroke="none" stroke-width="1" stroke-linecap="butt" stroke-linejoin="miter" stroke-miterlimit="10" stroke-dasharray="" stroke-dashoffset="0" font-family="Sans Serif" font-weight="normal" text-anchor="start" style="mix-blend-mode: normal"><tspan x="0" dy="0">Ben</tspan></text><path d="M181.49271,278.46884l-23.83534,17.19006c0,0 -1.34649,0.91961 -2.06111,0.27993c-0.71462,-0.63969 -0.08156,-2.19793 -0.08156,-2.19793l10.96142,-26.78868z" fill="#000000" stroke="#000000" stroke-width="2" stroke-linecap="round"/><path d="M193.21007,178.49892c17.7089,-18.95643 72.75221,-76.87545 115.26625,-110.75725c7.79559,-6.21275 16.92361,-4.10055 22.19036,0.00459c4.29204,3.34541 10.87623,14.17434 7.0886,22.81678c-3.28557,7.49683 -62.35894,112.9482 -77.96212,140.77266c-2.38434,4.25188 -5.76299,5.12883 -8.02899,3.36709c-7.60744,-5.91455 -50.23199,-39.05377 -61.55035,-47.85345c-1.75707,-1.36607 -0.69099,-4.4034 2.99626,-8.35041z" fill="#008aff" stroke="#008aff" stroke-width="2" stroke-linecap="butt"/><path d="M249.82989,245.17429c-4.971,4.97856 -49.97967,50.0943 -78.33154,30.45614c-17.7308,-13.54508 -7.88965,-43.91981 -6.14879,-47.89202c3.21487,-7.33552 13.53607,-29.18779 16.58408,-35.62902c0.54304,-1.14757 1.72465,-1.13003 2.86747,-0.24153c5.78462,4.49736 52.94419,41.16244 64.17777,49.89619c1.53163,1.19078 1.83016,2.42962 0.85102,3.41023z" data-paper-data="{&quot;index&quot;:null}" fill="#ffffff" stroke="#a6d5ff" stroke-width="2" stroke-linecap="butt"/><path d="M256.56998,179.64827c0,0 -3.3836,5.29927 -10.15718,0.86271c-6.457,-4.17574 -2.95347,-9.78882 -2.95347,-9.78882l14.66021,-21.53289c0,0 2.82045,-3.97229 9.36622,0.33355c5.23771,3.4454 3.96219,8.27269 3.96219,8.27269z" fill="#0a0047" stroke="none" stroke-width="0" stroke-linecap="butt"/><text transform="translate(245.81593,173.9111) rotate(-0.78465) scale(2.70576,2.24109) skewX(-0.04957)" font-size="40" xml:space="preserve" fill="#ed7aff" fill-rule="nonzero" stroke="none" stroke-width="1" stroke-linecap="butt" stroke-linejoin="miter" stroke-miterlimit="10" stroke-dasharray="" stroke-dashoffset="0" font-family="Sans Serif" font-weight="normal" text-anchor="start" style="mix-blend-mode: normal"><tspan x="0" dy="0">Pen</tspan></text></g></g></svg>