<svg version="1.1" xmlns="http://www.w3.org/2000/svg" xmlns:xlink="http://www.w3.org/1999/xlink" width="85.20782" height="78.64143" viewBox="0,0,85.20782,78.64143"><g transform="translate(-197.39609,-146.81006)"><g data-paper-data="{&quot;isPaintingLayer&quot;:true}" fill-rule="nonzero" stroke-linejoin="miter" stroke-miterlimit="10" stroke-dasharray="" stroke-dashoffset="0" style="mix-blend-mode: normal"><text transform="translate(229.68814,222.54402) scale(0.24229,0.24229)" font-size="40" xml:space="preserve" fill="#000000" fill-rule="nonzero" stroke="none" stroke-width="1" stroke-linecap="butt" stroke-linejoin="miter" stroke-miterlimit="10" stroke-dasharray="" stroke-dashoffset="0" font-family="Sans Serif" font-weight="normal" text-anchor="start" style="mix-blend-mode: normal"><tspan x="0" dy="0">Files</tspan></text><path d="M269.6654,196.44666l-27.05236,-4.91861l-10.14464,16.2929v-6.76309v-12.60395l-22.13375,-6.14826l15.37066,-7.37792l4.6112,-22.74858l17.21514,15.98548l15.98548,-4.30378l-12.91135,18.44479l12.91135,8.60757z" fill="#ff0000" stroke="#000000" stroke-width="0.5" stroke-linecap="round"/><path d="M197.39609,206.56343c0,-14.19737 0,-46.8559 0,-54.17749c0,-2.85323 3.49156,-5.57587 7.15136,-5.57587c9.63689,0 53.4967,0 70.9051,0c4.43349,0 7.15136,2.86126 7.15136,5.82554c0,7.41817 0,39.80365 0,53.92783c0,4.07239 -1.83487,6.62667 -7.15136,6.62667c-18.46684,0 -62.36462,0 -72.15343,0c-4.09998,0 -5.90303,-2.55361 -5.90303,-6.62667z" fill="#00ffd0" stroke="none" stroke-width="0" stroke-linecap="butt"/><path d="M250.87849,166.69928l0.05556,-7.19716l0.22223,0.00591l6.58006,6.76817l-0.06515,0.4896z" fill="#808080" stroke="none" stroke-width="0" stroke-linecap="butt"/><path d="M219.52015,201.36295c0,-6.61297 0,-29.24478 0,-40.35241c0,-3.68461 2.63329,-6.53554 6.21597,-6.53554c6.10785,0 27.09131,0 27.09131,0l7.50858,7.66416c0,0 0,31.22622 0,38.89836c0,3.11259 -2.65122,6.23762 -6.87608,6.23762c-8.68027,0 -23.04543,0 -27.72381,0c-2.9104,0 -6.21597,-2.45787 -6.21597,-5.91219z" fill="#ffffff" stroke="none" stroke-width="0" stroke-linecap="butt"/><path d="M252.87913,162.32757v-7.74747l7.60073,7.70854z" fill="#dcdcdc" stroke="none" stroke-width="0" stroke-linecap="butt"/><path d="M229.01441,164.07312h14.88409" fill="none" stroke="#000000" stroke-width="7.5" stroke-linecap="round"/><path d="M228.76065,175.29202h22.58487" fill="none" stroke="#000000" stroke-width="7.5" stroke-linecap="round"/><path d="M251.3452,187.04244h-22.58487" fill="none" stroke="#000000" stroke-width="7.5" stroke-linecap="round"/><path d="M251.34488,198.04283h-22.58487" fill="none" stroke="#000000" stroke-width="7.5" stroke-linecap="round"/></g></g></svg>